<svg width="15" height="15" viewBox="0 0 15 15" fill="none" xmlns="http://www.w3.org/2000/svg">
<path d="M14.1992 7.39453C14.1992 3.66661 11.1771 0.644531 7.44922 0.644531V1.76953C10.5558 1.76953 13.0742 4.28793 13.0742 7.39453H14.1992Z" fill="white"/>
<path fill-rule="evenodd" clip-rule="evenodd" d="M0.708966 3.92094C0.654467 4.65214 0.835174 5.34033 1.08472 6.01418C1.60103 7.40776 2.38697 8.64077 3.33927 9.77628C4.62717 11.3075 6.16461 12.5204 7.96595 13.395C8.7777 13.7878 9.61814 14.0918 10.5303 14.1405C11.1556 14.175 11.6672 13.9764 12.1423 13.5269C12.3493 13.331 12.5618 13.1124 12.7748 12.8933C12.8815 12.7835 12.9883 12.6735 13.0946 12.5663C13.565 12.0932 13.5679 11.5168 13.1003 11.0466C12.5439 10.4845 11.9845 9.92538 11.4223 9.3691C10.9634 8.91317 10.3897 8.91604 9.93079 9.3691C9.79152 9.50718 9.68088 9.61344 9.57663 9.71357C9.41894 9.86502 9.27584 10.0025 9.07035 10.2148C8.9757 10.3123 8.92761 10.3237 8.78065 10.2693C8.63368 10.2148 8.31597 10.0456 8.09797 9.91083C7.08544 9.27713 6.2364 8.45704 5.48489 7.53371C5.112 7.07492 4.77927 6.58459 4.5498 6.03404C4.50103 5.9222 4.50964 5.84765 4.60143 5.75876C4.71815 5.6459 4.81381 5.55443 4.90223 5.46988C5.0789 5.30096 5.22675 5.15959 5.45613 4.93028C5.93514 4.44855 5.93228 3.88366 5.45326 3.39906C5.27154 3.21548 5.08854 3.03318 4.90597 2.85131L4.90452 2.84986C4.8138 2.75949 4.7232 2.66923 4.6329 2.57897C4.35182 2.29511 4.07068 2.01119 3.78673 1.73307C3.32779 1.28288 2.75125 1.28001 2.29231 1.73307C2.29231 1.73307 1.59365 2.39865 1.24248 2.77109C0.891312 3.14352 0.743386 3.47074 0.708966 3.92094ZM3.21759 2.75362C3.11955 2.6575 3.10886 2.64701 3.04062 2.64701C2.97093 2.64701 2.93555 2.67993 2.87116 2.73985C2.86078 2.74951 2.84965 2.75987 2.8375 2.7709C2.74996 2.8504 2.07043 3.53144 2.07043 3.53144C2.07043 3.53144 1.8976 3.70692 1.84384 3.87677C1.79009 4.04662 1.82358 4.45509 1.87006 4.68792C2.24918 6.58695 3.59905 8.45806 4.79647 9.72245C6.01299 11.007 7.74607 12.2719 9.80823 12.9085C10.0699 12.9893 10.7547 13.0563 10.9651 12.9764C11.1756 12.8965 11.3791 12.7051 11.3791 12.7051L11.9722 12.1004C11.9722 12.1004 12.1596 11.9314 12.1596 11.8278C12.1596 11.7241 12.1075 11.6571 12.0371 11.5863C11.3666 10.9127 10.9972 10.54 10.9287 10.4684L10.9165 10.4556C10.8115 10.3455 10.7616 10.2932 10.672 10.2932C10.5857 10.2932 10.5002 10.3833 10.4455 10.4409L10.4333 10.4537C9.72243 11.1949 9.47879 11.3887 9.04372 11.4232C8.33217 11.4796 6.95045 10.7097 5.48764 9.22614C4.02484 7.74259 3.3198 6.31849 3.3956 5.79202C3.46705 5.29571 3.73916 5.03109 3.81474 4.95759L3.82626 4.9463C3.87953 4.89282 4.45099 4.34597 4.45099 4.34597C4.45099 4.34597 4.57515 4.23448 4.57515 4.17001C4.57515 4.11003 4.54843 4.08339 4.51127 4.04633L4.50275 4.03781C3.79034 3.32121 3.38351 2.91414 3.28226 2.8166C3.25712 2.79237 3.2358 2.77147 3.21759 2.75362Z" fill="white"/>
<path d="M7.44922 2.89453C9.9345 2.89453 11.9492 4.90925 11.9492 7.39453H10.8242C10.8242 5.53057 9.31318 4.01953 7.44922 4.01953V2.89453Z" fill="white"/>
</svg>
